<?xml version="1.0" encoding="UTF-8"?>
<svg xmlns="http://www.w3.org/2000/svg" version="1.1" viewBox="0 0 1440 360">
  <!-- Generator: Adobe Illustrator 30.3.0, SVG Export Plug-In . SVG Version: 2.1.3 Build 182)  -->
  <defs>
    <style>
      .st0, .st1, .st2 {
        fill: #a41e22;
      }

      .st3, .st4, .st5 {
        fill: none;
        stroke-miterlimit: 10;
      }

      .st3, .st5 {
        stroke: #a41e22;
      }

      .st1 {
        letter-spacing: 0em;
      }

      .st1, .st2 {
        font-family: Patriot-Regular, Patriot;
        font-size: 16px;
      }

      .st2 {
        letter-spacing: .01em;
      }

      .st4 {
        stroke: #231f20;
        stroke-width: .5px;
      }

      .st5 {
        stroke-dasharray: 0 7.94;
        stroke-linecap: round;
        stroke-width: 3px;
      }

      .st6 {
        fill: #231f20;
        font-family: Patriot-Bold, Patriot;
        font-size: 60px;
        font-weight: 700;
      }

      .st6, .st7 {
        display: none;
      }
    </style>
  </defs>
  <g id="titre">
    <text class="st6" transform="translate(571.21 1140.26)"><tspan x="0" y="0">2026</tspan></text>
  </g>
  <g id="moon_graph">
    <g>
      <circle class="st0" cx="810.29" cy="214.87" r="72"/>
      <path class="st3" d="M882.29,214.87c0,39.76-32.24,72-72,72-95.51-3.79-95.48-140.22,0-144,39.76,0,72,32.24,72,72h0Z"/>
    </g>
    <circle class="st5" cx="87.96" cy="214.87" r="72"/>
    <circle class="st5" cx="990.87" cy="214.87" r="72"/>
    <circle class="st5" cx="810.29" cy="214.87" r="72"/>
    <path class="st0" d="M1062.87,214.87c0,39.05-31.1,70.85-69.89,71.97-27.22-12.53-46.11-40.04-46.11-71.97s18.89-59.44,46.11-71.97c38.79,1.12,69.89,32.92,69.89,71.97Z"/>
    <circle class="st5" cx="629.71" cy="214.87" r="72"/>
    <path class="st0" d="M557.71,214.87c0-39.05,31.1-70.85,69.89-71.97,27.22,12.53,46.11,40.04,46.11,71.97s-18.89,59.44-46.11,71.97c-38.79-1.12-69.89-32.92-69.89-71.97Z"/>
    <circle class="st5" cx="1352.04" cy="214.87" r="72"/>
    <path class="st0" d="M1343.48,143.38c2.81-.34,5.66-.51,8.56-.51,39.77,0,72,32.23,72,72s-32.23,72-72,72c-2.9,0-5.75-.17-8.56-.51,26.66-12.74,45.08-39.97,45.08-71.49s-18.42-58.75-45.08-71.49Z"/>
    <circle class="st5" cx="268.55" cy="214.87" r="72"/>
    <path class="st0" d="M277.11,286.36c-2.81.34-5.66.51-8.56.51-39.77,0-72-32.23-72-72s32.23-72,72-72c2.9,0,5.75.17,8.56.51-26.66,12.74-45.08,39.97-45.08,71.49s18.42,58.75,45.08,71.49Z"/>
    <circle class="st5" cx="1171.45" cy="214.87" r="72"/>
    <path class="st0" d="M1243.45,214.87c0,39.76-32.24,72-72,72v-144c39.76,0,72,32.24,72,72Z"/>
    <circle class="st5" cx="449.13" cy="214.87" r="72"/>
    <path class="st0" d="M377.13,214.87c0-39.76,32.24-72,72-72v144c-39.76,0-72-32.24-72-72Z"/>
    <text class="st2" transform="translate(1103.79 100.73)"><tspan x="0" y="0">Dernier quartier</tspan></text>
    <text class="st2" transform="translate(768.43 100.73)"><tspan x="0" y="0">Pleine Lune</tspan></text>
    <text class="st2" transform="translate(380.65 100.73)"><tspan x="0" y="0">Premier quartier</tspan></text>
    <text class="st1" transform="translate(548.73 100.73)"><tspan x="0" y="0">gibbleuse croissant</tspan></text>
    <text class="st2" transform="translate(899.98 100.73)"><tspan x="0" y="0">gibbleuse décroissant</tspan></text>
    <text class="st2" transform="translate(35.23 100.73)"><tspan x="0" y="0">Nouvelle Lune</tspan></text>
    <text class="st2" transform="translate(195.44 100.73)"><tspan x="0" y="0">premier croissant</tspan></text>
    <text class="st2" transform="translate(1279.16 100.73)"><tspan x="0" y="0">dernier croissant</tspan></text>
  </g>
  <g id="border" class="st7">
    <rect class="st4" x="18" y="887.19" width="1260" height="1548"/>
    <rect class="st4" x="36" y="-1084.53" width="1224" height="1656"/>
  </g>
</svg>